<svg width="55" height="19" viewBox="0 0 55 19" fill="none" xmlns="http://www.w3.org/2000/svg">
<path opacity="0.5" d="M7.53516 0.972656C8.42057 0.972656 9.80729 1.26562 11.6953 1.85156C11.4609 3.33594 11.3307 4.14323 11.3047 4.27344C11.2656 4.46875 11.1094 4.56641 10.8359 4.56641C10.7318 4.56641 10.6602 4.54688 10.6211 4.50781C10.6211 4.3125 10.6146 4.13672 10.6016 3.98047C10.5885 3.82422 10.5234 3.59635 10.4062 3.29688C10.2891 2.9974 10.1263 2.75 9.91797 2.55469C9.72266 2.35938 9.41016 2.18359 8.98047 2.02734C8.55078 1.87109 8.03646 1.79297 7.4375 1.79297C6.09635 1.79297 4.84635 2.50911 3.6875 3.94141C2.52865 5.3737 1.94922 7.04036 1.94922 8.94141C1.94922 10.1914 2.28776 11.2266 2.96484 12.0469C3.64193 12.8672 4.59896 13.2773 5.83594 13.2773C6.79948 13.2773 7.61979 13.0625 8.29688 12.6328C8.6224 12.4375 8.90234 12.2031 9.13672 11.9297C9.38411 11.6562 9.5599 11.4349 9.66406 11.2656C9.78125 11.0964 9.84635 11.0117 9.85938 11.0117C9.89844 11.0117 9.97656 11.0833 10.0938 11.2266C10.2109 11.3568 10.263 11.4479 10.25 11.5C9.66406 12.6198 9.33854 13.2122 9.27344 13.2773C9.07812 13.4987 8.57031 13.694 7.75 13.8633C6.92969 14.0326 6.10286 14.1172 5.26953 14.1172C3.72005 14.1172 2.48307 13.5898 1.55859 12.5352C0.634115 11.4674 0.171875 10.2174 0.171875 8.78516C0.171875 7.92578 0.360677 7.03385 0.738281 6.10938C1.12891 5.1849 1.64323 4.34505 2.28125 3.58984C2.91927 2.82161 3.70052 2.19661 4.625 1.71484C5.5625 1.22005 6.53255 0.972656 7.53516 0.972656ZM17.2031 5.50391C17.6979 5.50391 18.1732 5.58854 18.6289 5.75781L17.4375 11.9297C17.3984 12.0859 17.3789 12.2487 17.3789 12.418C17.3789 12.7435 17.444 12.9062 17.5742 12.9062C17.6523 12.9062 17.7435 12.8737 17.8477 12.8086C17.9648 12.7305 18.0755 12.6393 18.1797 12.5352C18.2969 12.431 18.401 12.3333 18.4922 12.2422C18.5833 12.138 18.668 12.0469 18.7461 11.9688L18.8633 11.832C18.8893 11.832 18.9349 11.8971 19 12.0273C19.0781 12.1445 19.1172 12.2292 19.1172 12.2812C18.9479 12.5677 18.5964 12.9453 18.0625 13.4141C17.5286 13.8828 17.0599 14.1172 16.6562 14.1172C16.4479 14.1172 16.2852 14.026 16.168 13.8438C16.0508 13.6484 15.9922 13.401 15.9922 13.1016C15.9922 12.8802 16.0378 12.5352 16.1289 12.0664C16.1549 11.9232 16.1745 11.8125 16.1875 11.7344C16.2135 11.6432 16.2266 11.5846 16.2266 11.5586C16.0964 11.793 15.9466 12.0339 15.7773 12.2812C15.6081 12.5156 15.3932 12.7826 15.1328 13.082C14.8724 13.3815 14.5924 13.6289 14.293 13.8242C14.0065 14.0065 13.7331 14.0977 13.4727 14.0977C12.8997 14.0977 12.444 13.8438 12.1055 13.3359C11.7799 12.8151 11.6172 12.1901 11.6172 11.4609C11.6172 10.5365 11.8906 9.61198 12.4375 8.6875C12.9974 7.75 13.7135 6.98828 14.5859 6.40234C15.4583 5.80339 16.3307 5.50391 17.2031 5.50391ZM16.3828 6.40234C15.6146 6.40234 14.8659 6.90365 14.1367 7.90625C13.4206 8.89583 13.0625 9.94401 13.0625 11.0508C13.0625 12.3268 13.3945 12.9648 14.0586 12.9648C14.5273 12.9648 15.0482 12.4896 15.6211 11.5391C16.207 10.5885 16.5977 9.625 16.793 8.64844L17.1836 6.65625C17.0273 6.48698 16.7604 6.40234 16.3828 6.40234ZM22.7695 3.41406C22.8086 3.28385 23.1276 3.21875 23.7266 3.21875C23.8828 3.21875 24 3.22526 24.0781 3.23828L23.5898 5.79688H25.3672C25.4323 5.79688 25.4648 5.88151 25.4648 6.05078C25.4648 6.20703 25.4062 6.39583 25.2891 6.61719H23.4336L22.3984 11.9297C22.3594 12.0859 22.3398 12.2487 22.3398 12.418C22.3398 12.7435 22.4049 12.9062 22.5352 12.9062C22.6133 12.9062 22.7044 12.8737 22.8086 12.8086C22.9258 12.7305 23.0365 12.6393 23.1406 12.5352C23.2578 12.431 23.362 12.3333 23.4531 12.2422C23.5443 12.138 23.6289 12.0469 23.707 11.9688L23.8242 11.832C23.8503 11.832 23.8958 11.8971 23.9609 12.0273C24.0391 12.1445 24.0781 12.2292 24.0781 12.2812C23.9089 12.5677 23.5573 12.9453 23.0234 13.4141C22.4896 13.8828 22.0208 14.1172 21.6172 14.1172C21.4089 14.1172 21.2461 14.026 21.1289 13.8438C21.0117 13.6484 20.9531 13.401 20.9531 13.1016C20.9531 12.8932 20.9987 12.5482 21.0898 12.0664L22.1445 6.61719H20.7578C20.7188 6.61719 20.6992 6.54557 20.6992 6.40234C20.6992 6.23307 20.7773 6.03125 20.9336 5.79688H22.3008L22.7695 3.41406ZM30.9141 5.50391C31.4089 5.50391 31.8841 5.58854 32.3398 5.75781L31.1484 11.9297C31.1094 12.0859 31.0898 12.2487 31.0898 12.418C31.0898 12.7435 31.1549 12.9062 31.2852 12.9062C31.3633 12.9062 31.4544 12.8737 31.5586 12.8086C31.6758 12.7305 31.7865 12.6393 31.8906 12.5352C32.0078 12.431 32.112 12.3333 32.2031 12.2422C32.2943 12.138 32.3789 12.0469 32.457 11.9688L32.5742 11.832C32.6003 11.832 32.6458 11.8971 32.7109 12.0273C32.7891 12.1445 32.8281 12.2292 32.8281 12.2812C32.6589 12.5677 32.3073 12.9453 31.7734 13.4141C31.2396 13.8828 30.7708 14.1172 30.3672 14.1172C30.1589 14.1172 29.9961 14.026 29.8789 13.8438C29.7617 13.6484 29.7031 13.401 29.7031 13.1016C29.7031 12.8802 29.7487 12.5352 29.8398 12.0664C29.8659 11.9232 29.8854 11.8125 29.8984 11.7344C29.9245 11.6432 29.9375 11.5846 29.9375 11.5586C29.8073 11.793 29.6576 12.0339 29.4883 12.2812C29.319 12.5156 29.1042 12.7826 28.8438 13.082C28.5833 13.3815 28.3034 13.6289 28.0039 13.8242C27.7174 14.0065 27.444 14.0977 27.1836 14.0977C26.6107 14.0977 26.1549 13.8438 25.8164 13.3359C25.4909 12.8151 25.3281 12.1901 25.3281 11.4609C25.3281 10.5365 25.6016 9.61198 26.1484 8.6875C26.7083 7.75 27.4245 6.98828 28.2969 6.40234C29.1693 5.80339 30.0417 5.50391 30.9141 5.50391ZM30.0938 6.40234C29.3255 6.40234 28.5768 6.90365 27.8477 7.90625C27.1315 8.89583 26.7734 9.94401 26.7734 11.0508C26.7734 12.3268 27.1055 12.9648 27.7695 12.9648C28.2383 12.9648 28.7591 12.4896 29.332 11.5391C29.918 10.5885 30.3086 9.625 30.5039 8.64844L30.8945 6.65625C30.7383 6.48698 30.4714 6.40234 30.0938 6.40234ZM34.4492 12.0664L36.2852 2.59375C36.3242 2.39844 36.3438 2.21615 36.3438 2.04688C36.3438 1.79948 35.9466 1.67578 35.1523 1.67578C35.1133 1.67578 35.0938 1.63672 35.0938 1.55859C35.0938 1.40234 35.1458 1.27214 35.25 1.16797C36.1354 1.08984 36.9688 0.907552 37.75 0.621094C37.8281 0.660156 37.8672 0.783854 37.8672 0.992188C37.8672 1.14844 37.7826 1.63672 37.6133 2.45703L35.7578 11.9297C35.7188 12.0859 35.6992 12.2487 35.6992 12.418C35.6992 12.7435 35.7643 12.9062 35.8945 12.9062C35.9727 12.9062 36.0638 12.8737 36.168 12.8086C36.2852 12.7305 36.4023 12.6393 36.5195 12.5352C36.6367 12.431 36.7409 12.3333 36.832 12.2422C36.9232 12.138 37.0013 12.0469 37.0664 11.9688C37.1445 11.8776 37.1836 11.832 37.1836 11.832C37.2227 11.832 37.2747 11.8971 37.3398 12.0273C37.4049 12.1445 37.4375 12.2292 37.4375 12.2812C37.2682 12.5677 36.9167 12.9453 36.3828 13.4141C35.849 13.8828 35.3802 14.1172 34.9766 14.1172C34.7812 14.1172 34.6185 14.026 34.4883 13.8438C34.3711 13.6484 34.3125 13.401 34.3125 13.1016C34.3125 12.8802 34.3581 12.5352 34.4492 12.0664ZM42.8672 6.30469C42.2161 6.30469 41.6237 6.81901 41.0898 7.84766C40.556 8.86328 40.2891 9.88542 40.2891 10.9141C40.2891 11.6693 40.4062 12.2552 40.6406 12.6719C40.888 13.0885 41.194 13.2969 41.5586 13.2969C42.2096 13.2969 42.7826 12.7891 43.2773 11.7734C43.7852 10.7448 44.0391 9.70964 44.0391 8.66797C44.0391 7.89974 43.9349 7.3138 43.7266 6.91016C43.5182 6.50651 43.2318 6.30469 42.8672 6.30469ZM43.1016 5.50391C43.8698 5.50391 44.4622 5.77083 44.8789 6.30469C45.3086 6.83854 45.5234 7.57422 45.5234 8.51172C45.5234 9.85286 45.0482 11.1224 44.0977 12.3203C43.1602 13.5052 42.1966 14.0977 41.207 14.0977C40.4258 14.0977 39.8268 13.8438 39.4102 13.3359C39.0065 12.8281 38.8047 12.1055 38.8047 11.168C38.8047 9.8138 39.2734 8.53125 40.2109 7.32031C41.1484 6.10938 42.112 5.50391 43.1016 5.50391ZM52.2031 16.3047C52.2031 16.0182 52.1185 15.7513 51.9492 15.5039C51.793 15.2695 51.5586 15.0612 51.2461 14.8789C50.9336 14.7096 50.6471 14.5729 50.3867 14.4688C50.1393 14.3776 49.8333 14.2734 49.4688 14.1562C49.2214 14.2604 49.0391 14.3385 48.9219 14.3906C48.8177 14.4427 48.6354 14.5404 48.375 14.6836C48.1146 14.8268 47.9193 14.957 47.7891 15.0742C47.6719 15.1914 47.5547 15.3477 47.4375 15.543C47.3333 15.7383 47.2812 15.9401 47.2812 16.1484C47.2812 17.1901 48.1341 17.7109 49.8398 17.7109C50.4779 17.7109 51.0312 17.5742 51.5 17.3008C51.9688 17.0404 52.2031 16.7083 52.2031 16.3047ZM50.9336 6.22656C50.3737 6.22656 49.9115 6.53906 49.5469 7.16406C49.1953 7.77604 49.0195 8.44661 49.0195 9.17578C49.0195 9.68359 49.1237 10.1068 49.332 10.4453C49.5404 10.7839 49.8333 10.9531 50.2109 10.9531C50.7578 10.9531 51.207 10.6667 51.5586 10.0938C51.9232 9.52083 52.1055 8.90885 52.1055 8.25781C52.1055 7.73698 52.0013 7.26823 51.793 6.85156C51.5846 6.4349 51.2982 6.22656 50.9336 6.22656ZM51.2461 5.48438C51.6367 5.48438 52.0664 5.57552 52.5352 5.75781C53.0039 5.92708 53.4596 6.01172 53.9023 6.01172H54.7422C54.8203 6.01172 54.8594 6.0638 54.8594 6.16797C54.8594 6.25911 54.8333 6.36979 54.7812 6.5C54.7422 6.63021 54.6966 6.72135 54.6445 6.77344H53.5508C53.4727 6.77344 53.4336 6.8125 53.4336 6.89062C53.5117 7.35938 53.5508 7.69792 53.5508 7.90625C53.5508 8.38802 53.4792 8.83724 53.3359 9.25391C53.2057 9.65755 53.0234 9.98958 52.7891 10.25C52.5677 10.5104 52.3789 10.7057 52.2227 10.8359C52.0794 10.9661 51.9297 11.0768 51.7734 11.168C51.6432 11.2461 51.3763 11.3828 50.9727 11.5781C50.582 11.7604 50.276 11.9297 50.0547 12.0859C49.8333 12.2292 49.7227 12.3659 49.7227 12.4961C49.7227 12.6133 49.8464 12.7305 50.0938 12.8477C50.3542 12.9518 50.6667 13.069 51.0312 13.1992C51.4089 13.3164 51.7799 13.4661 52.1445 13.6484C52.5091 13.8307 52.8151 14.0846 53.0625 14.4102C53.3229 14.7357 53.4531 15.1068 53.4531 15.5234C53.4531 16.4479 53.0365 17.1836 52.2031 17.7305C51.3828 18.2773 50.276 18.5508 48.8828 18.5508C47.9844 18.5508 47.2487 18.3815 46.6758 18.043C46.1159 17.7044 45.8359 17.2357 45.8359 16.6367C45.8359 16.3242 45.9206 16.0182 46.0898 15.7188C46.2591 15.4323 46.5 15.1719 46.8125 14.9375C47.138 14.7031 47.4375 14.5078 47.7109 14.3516C47.9844 14.1953 48.2969 14.0391 48.6484 13.8828L48.2969 13.6484C47.9714 13.4271 47.8086 13.1927 47.8086 12.9453C47.8086 12.724 48.0365 12.4701 48.4922 12.1836C48.9609 11.8971 49.3841 11.7083 49.7617 11.6172C49.5143 11.6172 49.2279 11.5521 48.9023 11.4219C48.5898 11.2917 48.2839 11.0573 47.9844 10.7188C47.6979 10.3672 47.5547 9.95703 47.5547 9.48828C47.5547 8.39453 47.9323 7.45703 48.6875 6.67578C49.4557 5.88151 50.3086 5.48438 51.2461 5.48438Z" fill="#1E0606"/>
</svg>
