<svg width="42" height="14" viewBox="0 0 42 14" fill="none" xmlns="http://www.w3.org/2000/svg">
<path d="M7.75391 5.87109C9.44661 5.87109 10.2995 5.81901 10.3125 5.71484L10.8398 3C10.9831 2.28385 11.0547 1.6849 11.0547 1.20312C11.0547 1.0599 10.9115 0.936198 10.625 0.832031C10.3516 0.727865 10.1302 0.675781 9.96094 0.675781C9.9349 0.675781 9.92188 0.643229 9.92188 0.578125C9.92188 0.395833 9.97396 0.252604 10.0781 0.148438C10.2344 0.161458 10.5404 0.1875 10.9961 0.226562C11.4648 0.252604 11.862 0.265625 12.1875 0.265625C12.5 0.265625 12.9036 0.246094 13.3984 0.207031C13.9062 0.167969 14.1992 0.148438 14.2773 0.148438V0.207031C14.2773 0.519531 14.2318 0.675781 14.1406 0.675781C14.0365 0.675781 13.8216 0.727865 13.4961 0.832031C13.1706 0.936198 12.9883 1.03385 12.9492 1.125C12.7539 1.55469 12.5846 2.16016 12.4414 2.94141L11.0156 10.2852C10.8724 11.0013 10.8008 11.5872 10.8008 12.043C10.8008 12.1471 10.8854 12.2448 11.0547 12.3359C11.237 12.4141 11.4193 12.4661 11.6016 12.4922L11.8555 12.5312C11.8815 12.5312 11.8945 12.5573 11.8945 12.6094C11.8945 12.7526 11.8555 12.9023 11.7773 13.0586C10.5664 12.9935 9.88932 12.9609 9.74609 12.9609C9.70703 12.9609 8.99089 12.9935 7.59766 13.0586C7.57161 13.0326 7.55859 12.9805 7.55859 12.9023C7.55859 12.6549 7.60417 12.5312 7.69531 12.5312C7.85156 12.5312 8.08594 12.4922 8.39844 12.4141C8.71094 12.3229 8.89323 12.2188 8.94531 12.1016C9.14062 11.6589 9.3099 11.0339 9.45312 10.2266L10.0781 7.00391V6.98438C10.0781 6.91927 9.92188 6.88021 9.60938 6.86719C9.3099 6.84115 8.57422 6.82812 7.40234 6.82812C5.52734 6.82812 4.57682 6.90625 4.55078 7.0625L3.92578 10.2852C3.78255 11.0013 3.71094 11.5872 3.71094 12.043C3.71094 12.1471 3.79557 12.2448 3.96484 12.3359C4.14714 12.4141 4.32292 12.4661 4.49219 12.4922L4.76562 12.5312C4.79167 12.5312 4.80469 12.5573 4.80469 12.6094C4.80469 12.7526 4.76562 12.9023 4.6875 13.0586C3.48958 12.9935 2.8125 12.9609 2.65625 12.9609C2.63021 12.9609 1.91406 12.9935 0.507812 13.0586C0.481771 13.0326 0.46875 12.9805 0.46875 12.9023C0.46875 12.6549 0.514323 12.5312 0.605469 12.5312C0.761719 12.5312 0.996094 12.4922 1.30859 12.4141C1.62109 12.3229 1.80339 12.2188 1.85547 12.1016C2.05078 11.6589 2.22005 11.0339 2.36328 10.2266L3.75 3C3.89323 2.28385 3.96484 1.6849 3.96484 1.20312C3.96484 1.0599 3.82161 0.936198 3.53516 0.832031C3.26172 0.727865 3.04036 0.675781 2.87109 0.675781C2.84505 0.675781 2.83203 0.643229 2.83203 0.578125C2.83203 0.395833 2.88411 0.252604 2.98828 0.148438C3.14453 0.161458 3.45052 0.1875 3.90625 0.226562C4.375 0.252604 4.77214 0.265625 5.09766 0.265625C5.41016 0.265625 5.80729 0.246094 6.28906 0.207031C6.78385 0.167969 7.07682 0.148438 7.16797 0.148438V0.207031C7.16797 0.519531 7.1224 0.675781 7.03125 0.675781C6.92708 0.675781 6.70573 0.727865 6.36719 0.832031C6.04167 0.936198 5.85938 1.03385 5.82031 1.125C5.61198 1.60677 5.44271 2.21224 5.3125 2.94141L4.82422 5.69531V5.71484C4.82422 5.77995 4.99349 5.82552 5.33203 5.85156C5.68359 5.86458 6.49089 5.87109 7.75391 5.87109ZM17.6367 5.30469C16.9857 5.30469 16.3932 5.81901 15.8594 6.84766C15.3255 7.86328 15.0586 8.88542 15.0586 9.91406C15.0586 10.6693 15.1758 11.2552 15.4102 11.6719C15.6576 12.0885 15.9635 12.2969 16.3281 12.2969C16.9792 12.2969 17.5521 11.7891 18.0469 10.7734C18.5547 9.74479 18.8086 8.70964 18.8086 7.66797C18.8086 6.89974 18.7044 6.3138 18.4961 5.91016C18.2878 5.50651 18.0013 5.30469 17.6367 5.30469ZM17.8711 4.50391C18.6393 4.50391 19.2318 4.77083 19.6484 5.30469C20.0781 5.83854 20.293 6.57422 20.293 7.51172C20.293 8.85286 19.8177 10.1224 18.8672 11.3203C17.9297 12.5052 16.9661 13.0977 15.9766 13.0977C15.1953 13.0977 14.5964 12.8438 14.1797 12.3359C13.776 11.8281 13.5742 11.1055 13.5742 10.168C13.5742 8.8138 14.043 7.53125 14.9805 6.32031C15.918 5.10938 16.8815 4.50391 17.8711 4.50391ZM28.0078 4.50391C28.3594 4.50391 28.6263 4.60807 28.8086 4.81641C29.0039 5.02474 29.1211 5.24609 29.1602 5.48047C29.1992 5.70182 29.2188 5.99479 29.2188 6.35938C29.2188 6.58073 29.1276 7.16016 28.9453 8.09766C29.375 7.35547 29.974 6.57422 30.7422 5.75391C31.5234 4.92057 32.1419 4.50391 32.5977 4.50391C33.0273 4.50391 33.3203 4.61458 33.4766 4.83594C33.6328 5.04427 33.7109 5.36328 33.7109 5.79297C33.7109 6.37891 33.6198 7.08854 33.4375 7.92188L32.793 10.9297C32.7539 11.0859 32.7344 11.2487 32.7344 11.418C32.7344 11.7435 32.7995 11.9062 32.9297 11.9062C33.0078 11.9062 33.099 11.8737 33.2031 11.8086C33.3203 11.7305 33.431 11.6393 33.5352 11.5352C33.6523 11.431 33.7565 11.3333 33.8477 11.2422C33.9388 11.138 34.0234 11.0469 34.1016 10.9688L34.2188 10.832C34.2448 10.832 34.2904 10.8971 34.3555 11.0273C34.4336 11.1445 34.4727 11.2292 34.4727 11.2812C34.3034 11.5677 33.9518 11.9453 33.418 12.4141C32.8841 12.8828 32.4154 13.1172 32.0117 13.1172C31.8034 13.1172 31.6406 13.026 31.5234 12.8438C31.4062 12.6484 31.3477 12.401 31.3477 12.1016C31.3477 11.8932 31.3932 11.5482 31.4844 11.0664L32.168 7.84375C32.2591 7.41406 32.3047 7.0625 32.3047 6.78906C32.3047 6.59375 32.2982 6.44401 32.2852 6.33984C32.2721 6.23568 32.2396 6.14453 32.1875 6.06641C32.1354 5.98828 32.0508 5.94922 31.9336 5.94922C31.4909 5.94922 30.8333 6.51562 29.9609 7.64844C29.1016 8.78125 28.5612 9.94661 28.3398 11.1445L27.9883 13C27.9362 13 27.832 13.0065 27.6758 13.0195C27.5326 13.0456 27.4089 13.0586 27.3047 13.0586C27.2005 13.0586 27.0768 13.0456 26.9336 13.0195C26.8034 13.0065 26.7188 13 26.6797 13L27.7734 7.45312C27.8255 7.17969 27.8516 6.93229 27.8516 6.71094C27.8516 6.20312 27.7214 5.94922 27.4609 5.94922C27.0052 5.94922 26.3542 6.56771 25.5078 7.80469C24.6615 9.04167 24.1276 10.2005 23.9062 11.2812L23.5547 13C23.2161 13.0521 22.9948 13.0781 22.8906 13.0781C22.7995 13.0781 22.5846 13.0521 22.2461 13L23.418 6.98438C23.4831 6.51562 23.5156 6.25521 23.5156 6.20312C23.5156 5.8776 23.4505 5.71484 23.3203 5.71484C23.2682 5.71484 23.1966 5.7474 23.1055 5.8125C23.0143 5.86458 22.9167 5.9362 22.8125 6.02734C22.7214 6.11849 22.6367 6.20312 22.5586 6.28125C22.4805 6.35938 22.4089 6.4375 22.3438 6.51562C22.2786 6.59375 22.2461 6.63281 22.2461 6.63281C22.2201 6.63281 22.168 6.57422 22.0898 6.45703C22.0247 6.32682 21.9922 6.23568 21.9922 6.18359C22.1484 5.92318 22.474 5.57812 22.9688 5.14844C23.4766 4.71875 23.8997 4.50391 24.2383 4.50391C24.4466 4.50391 24.6094 4.60156 24.7266 4.79688C24.8438 4.97917 24.9023 5.22005 24.9023 5.51953C24.9023 5.80599 24.8633 6.15104 24.7852 6.55469L24.4336 8.37109C24.9154 7.53776 25.5143 6.6849 26.2305 5.8125C26.9596 4.9401 27.5521 4.50391 28.0078 4.50391ZM39.9805 4.50391C40.5794 4.50391 41.0091 4.66016 41.2695 4.97266C41.543 5.27214 41.6797 5.60417 41.6797 5.96875C41.6797 6.54167 41.3867 7.10807 40.8008 7.66797C40.2148 8.22786 39.5703 8.66406 38.8672 8.97656C38.1771 9.27604 37.6172 9.42578 37.1875 9.42578C37.1354 9.42578 37.1094 9.65365 37.1094 10.1094C37.1094 10.6953 37.2201 11.1445 37.4414 11.457C37.6758 11.7565 37.9883 11.9062 38.3789 11.9062C38.4831 11.9062 38.5807 11.8932 38.6719 11.8672C38.776 11.8411 38.8737 11.8086 38.9648 11.7695C39.056 11.7305 39.1471 11.6914 39.2383 11.6523C39.3294 11.6003 39.4141 11.5417 39.4922 11.4766C39.5703 11.4115 39.6419 11.3529 39.707 11.3008C39.7852 11.2487 39.8503 11.1966 39.9023 11.1445C39.9674 11.0794 40.013 11.0273 40.0391 10.9883C40.0781 10.9492 40.1107 10.9167 40.1367 10.8906L40.1953 10.832C40.2214 10.832 40.2669 10.8971 40.332 11.0273C40.4102 11.1445 40.4492 11.2292 40.4492 11.2812C40.2669 11.5938 39.9023 11.9779 39.3555 12.4336C38.8086 12.8893 38.2682 13.1172 37.7344 13.1172C37.0573 13.1172 36.5365 12.8568 36.1719 12.3359C35.8203 11.8021 35.6445 11.0729 35.6445 10.1484C35.6445 8.89844 36.1198 7.64844 37.0703 6.39844C38.0208 5.13542 38.9909 4.50391 39.9805 4.50391ZM39.7852 5.30469C39.1732 5.30469 38.5938 5.7474 38.0469 6.63281C37.513 7.50521 37.2461 8.18229 37.2461 8.66406C37.2461 8.71615 37.2721 8.74219 37.3242 8.74219C37.793 8.74219 38.3984 8.42969 39.1406 7.80469C39.8958 7.17969 40.2734 6.54167 40.2734 5.89062C40.2734 5.5 40.1107 5.30469 39.7852 5.30469Z" fill="#1E0606"/>
</svg>
